<svg xmlns="http://www.w3.org/2000/svg" width="1600" height="720" viewBox="0 0 1600 720"><g><g><path fill="#fff" d="M0 0h1600v720H0z"/></g><g><g><path fill="#a4eecb" d="M236.17 178.17l8.66-5 5 8.66-8.66 5z"/></g><g><path fill="#a4eecb" d="M522.876 291.464l9.66-2.588 2.588 9.66-9.66 2.587z"/></g><g><path fill="#a4eecb" d="M1061.15 166.175l8.675 4.975-4.975 8.675-8.675-4.976z"/></g><g><path fill="#a4eecb" d="M822.17 359.83l5-8.66 8.66 5-5 8.66z"/></g><g><path fill="#a4eecb" d="M350.8 236.262l16.937 4.538-4.538 16.937-16.937-4.538z"/></g><g><path fill="#a4eecb" d="M637.78 104.03l11.69-6.75 6.749 11.69-11.69 6.749z"/></g><g><path fill="#a4eecb" d="M1168.209 279.024l8.767 15.185-15.185 8.767-8.767-15.185z"/></g><g opacity=".5"><path fill="#a4eecb" d="M1319.01 167.558l-21.568 12.452-12.453-21.568 21.569-12.453z"/></g><g opacity=".5"><path fill="#a4eecb" d="M156.01 303.442l-12.452 21.568-21.568-12.452 12.452-21.569z"/></g></g></g></svg>